<svg id="visual" viewBox="0 0 960 300" width="960" height="300" xmlns="http://www.w3.org/2000/svg" xmlns:xlink="http://www.w3.org/1999/xlink" version="1.1"><rect x="0" y="0" width="960" height="300" fill="#c01d57"></rect><path d="M0 95L22.8 96C45.7 97 91.3 99 137 96.8C182.7 94.7 228.3 88.3 274 91.7C319.7 95 365.3 108 411.2 113.3C457 118.7 503 116.3 548.8 114.3C594.7 112.3 640.3 110.7 686 109C731.7 107.3 777.3 105.7 823 101.7C868.7 97.7 914.3 91.3 937.2 88.2L960 85L960 0L937.2 0C914.3 0 868.7 0 823 0C777.3 0 731.7 0 686 0C640.3 0 594.7 0 548.8 0C503 0 457 0 411.2 0C365.3 0 319.7 0 274 0C228.3 0 182.7 0 137 0C91.3 0 45.7 0 22.8 0L0 0Z" fill="#c62368"></path><path d="M0 91L22.8 92.5C45.7 94 91.3 97 137 93.5C182.7 90 228.3 80 274 80C319.7 80 365.3 90 411.2 95C457 100 503 100 548.8 97.8C594.7 95.7 640.3 91.3 686 87.8C731.7 84.3 777.3 81.7 823 81.8C868.7 82 914.3 85 937.2 86.5L960 88L960 0L937.2 0C914.3 0 868.7 0 823 0C777.3 0 731.7 0 686 0C640.3 0 594.7 0 548.8 0C503 0 457 0 411.2 0C365.3 0 319.7 0 274 0C228.3 0 182.7 0 137 0C91.3 0 45.7 0 22.8 0L0 0Z" fill="#d53867"></path><path d="M0 59L22.8 57.8C45.7 56.7 91.3 54.3 137 51.8C182.7 49.3 228.3 46.7 274 47.3C319.7 48 365.3 52 411.2 54.7C457 57.3 503 58.7 548.8 61.7C594.7 64.7 640.3 69.3 686 69C731.7 68.7 777.3 63.3 823 64C868.7 64.7 914.3 71.3 937.2 74.7L960 78L960 0L937.2 0C914.3 0 868.7 0 823 0C777.3 0 731.7 0 686 0C640.3 0 594.7 0 548.8 0C503 0 457 0 411.2 0C365.3 0 319.7 0 274 0C228.3 0 182.7 0 137 0C91.3 0 45.7 0 22.8 0L0 0Z" fill="#e34c67"></path><path d="M0 45L22.8 42.8C45.7 40.7 91.3 36.3 137 34.5C182.7 32.7 228.3 33.3 274 34.5C319.7 35.7 365.3 37.3 411.2 41.3C457 45.3 503 51.7 548.8 52.2C594.7 52.7 640.3 47.3 686 44.8C731.7 42.3 777.3 42.7 823 40.5C868.7 38.3 914.3 33.7 937.2 31.3L960 29L960 0L937.2 0C914.3 0 868.7 0 823 0C777.3 0 731.7 0 686 0C640.3 0 594.7 0 548.8 0C503 0 457 0 411.2 0C365.3 0 319.7 0 274 0C228.3 0 182.7 0 137 0C91.3 0 45.7 0 22.8 0L0 0Z" fill="#ef5f67"></path><path d="M0 16L22.8 18.3C45.7 20.7 91.3 25.3 137 27.7C182.7 30 228.3 30 274 30.7C319.7 31.3 365.3 32.7 411.2 31.3C457 30 503 26 548.8 22.8C594.7 19.7 640.3 17.3 686 17.5C731.7 17.7 777.3 20.3 823 23.8C868.7 27.3 914.3 31.7 937.2 33.8L960 36L960 0L937.2 0C914.3 0 868.7 0 823 0C777.3 0 731.7 0 686 0C640.3 0 594.7 0 548.8 0C503 0 457 0 411.2 0C365.3 0 319.7 0 274 0C228.3 0 182.7 0 137 0C91.3 0 45.7 0 22.8 0L0 0Z" fill="#fa7268"></path></svg>