<svg id="visual" viewBox="0 0 960 300" width="960" height="300" xmlns="http://www.w3.org/2000/svg" xmlns:xlink="http://www.w3.org/1999/xlink" version="1.1"><rect x="0" y="0" width="960" height="300" fill="#FF0066"></rect><path d="M0 186L137 214L274 186L411 216L549 204L686 220L823 208L960 199L960 301L823 301L686 301L549 301L411 301L274 301L137 301L0 301Z" fill="#ff5599"></path><path d="M0 222L137 215L274 202L411 208L549 221L686 196L823 212L960 231L960 301L823 301L686 301L549 301L411 301L274 301L137 301L0 301Z" fill="#ea4382"></path><path d="M0 232L137 246L274 231L411 221L549 220L686 226L823 230L960 254L960 301L823 301L686 301L549 301L411 301L274 301L137 301L0 301Z" fill="#d5316c"></path><path d="M0 263L137 246L274 253L411 248L549 258L686 265L823 245L960 260L960 301L823 301L686 301L549 301L411 301L274 301L137 301L0 301Z" fill="#c01d57"></path><path d="M0 273L137 266L274 284L411 277L549 278L686 286L823 275L960 264L960 301L823 301L686 301L549 301L411 301L274 301L137 301L0 301Z" fill="#aa0044"></path></svg>